<?xml version="1.0" encoding="utf-8"?>
<!-- Generator: Adobe Illustrator 24.1.0, SVG Export Plug-In . SVG Version: 6.00 Build 0)  -->
<svg version="1.1" id="Layer_1" xmlns="http://www.w3.org/2000/svg" xmlns:xlink="http://www.w3.org/1999/xlink" x="0px" y="0px"
	 viewBox="0 0 207 192" style="enable-background:new 0 0 207 192;" xml:space="preserve">
<style type="text/css">
	.st0{fill:none;stroke:#FFFFFF;}
	.st1{fill-rule:evenodd;clip-rule:evenodd;fill:none;stroke:#FFFFFF;stroke-miterlimit:10;}
	.st2{fill-rule:evenodd;clip-rule:evenodd;fill:none;stroke:#FFFFFF;}
	.st3{fill:#FFFFFF;}
</style>
<g>
	<g>
		<path class="st0" d="M78.68,81.29c0,0,5.06-1.62,8.16-1.62c3.1,0,11.22,0.37,12.77,0.44c1.55,0.07,9.08,0.66,10.41,0.89
			c1.33,0.22,7.82,0.3,9.52,0.07c1.7-0.22,4.98-0.96,5.57-1.25"/>
		<path class="st0" d="M78.84,71.92c0,0,4.87-0.37,7.23,0.15c2.36,0.52,4.43,1.33,6.79,2.14c2.36,0.81,4.92,0.85,5.74,1.07"/>
		<path class="st0" d="M104.71,75.32c0,0,6.2-0.96,9.23-3.1c0,0,1.46-0.92,2.29-0.96c0.81-0.04,6.79,0,7.82,0l1.18,0.04"/>
		<g>
			<path class="st1" d="M88.77,54.79c0-0.02,0-0.05,0-0.07c0-7.13,5.78-12.9,12.9-12.9"/>
			<path class="st1" d="M114.6,54.79c0-0.02,0-0.05,0-0.07c0-7.13-5.78-12.9-12.9-12.9"/>
		</g>
		<g>
			<path class="st2" d="M125.36,53.13c0,0,0.91,27.57-0.42,31.78c0,0-3.11,18.1-23.03,18.23l0.5,0.02"/>
			<line class="st2" x1="102.48" y1="103.17" x2="102.41" y2="103.16"/>
		</g>
		<g>
			<path class="st2" d="M78.24,53.15c0,0-0.91,27.57,0.42,31.78c0,0,3.44,17.89,23.26,18.22l-0.73,0.03"/>
			<line class="st2" x1="101.11" y1="103.18" x2="101.18" y2="103.18"/>
		</g>
		<g>
			<path class="st0" d="M111.79,81.1c-4.1-0.44-6.19-3.26-6.19-3.26c-1.26-2.37-0.77-5.49,0.21-7.02c1.18-1.85,3.94-2.61,3.94-2.61
				c2.08-0.73,6.17-2.06,11.38-5.99c4.23-3.2,4.6-8.07,4.4-9.08c-0.03-0.14,0-0.39-0.19-0.17c-0.24,0.28-2.27,0.72-2.27,0.72
				c-4.21,0.83-13.64,0.94-17.11,0.94c-3.47,0-3.85,2.08-3.85,2.08s-0.06,0.28-0.11,0.78c-0.04,0.34-0.25,0.25-0.3,0
				c-0.04-0.18-0.14-0.44-0.14-0.44s-0.63-2.46-4.1-2.46c-3.47,0-16.31,0.44-17.04,0.07c0,0-2.07-0.74-2.36-0.96
				c-0.3-0.22-0.3,5.09,4.5,8.79c4.91,3.78,10.12,5.07,11.55,5.72c0,0,3.26,1.44,4.15,2.6c1.11,1.44,1.88,4.54,0,7.03l-1.11,0.89
				c0,0-1.25,1-3.52,1.11"/>
		</g>
	</g>
	<g>
		<path class="st3" d="M24.25,114.21l-0.01-0.05l3.7-3.99l-6.71,1.6l-0.39-1.62l9.39-2.24l0.42,1.76l-3.76,3.92l5.12,1.8l0.42,1.76
			l-9.39,2.24l-0.39-1.65l6.73-1.61L24.25,114.21z"/>
		<path class="st3" d="M32.27,131.08c-2.63,1.17-4.62,0.28-5.64-2.03c-1.02-2.29-0.35-4.34,2.2-5.48l5.07-2.26l0.69,1.55l-5.01,2.24
			c-1.64,0.73-2.14,1.97-1.52,3.35c0.61,1.37,1.82,1.85,3.44,1.12l5.07-2.26l0.69,1.55L32.27,131.08z"/>
		<path class="st3" d="M43.24,138.33l0.94,1.38l-7.99,5.43l-0.8-1.18l2.69-8.27l-5.68,3.86l-0.94-1.38l7.99-5.43l0.88,1.3
			l-2.62,8.03L43.24,138.33z"/>
		<path class="st3" d="M48.48,144.66l-7.18,6.45l-1.13-1.26l7.18-6.45L48.48,144.66z"/>
		<path class="st3" d="M48.86,158.58c-2.14-1.83-2.31-4.86-0.5-6.97c1.79-2.1,4.81-2.47,7.04-0.57c1.35,1.15,1.77,2.33,1.9,3.6
			l-1.64,0.25c-0.12-1.05-0.44-1.95-1.28-2.67c-1.4-1.2-3.41-0.92-4.64,0.53c-1.24,1.45-1.22,3.49,0.18,4.69
			c0.9,0.77,1.79,0.9,2.92,0.85l0.11,1.55C51.5,159.97,50.23,159.75,48.86,158.58z"/>
		<path class="st3" d="M63.12,156.88l-5.26,8.1l-1.42-0.92l5.25-8.1L63.12,156.88z"/>
		<path class="st3" d="M67.72,166.89l-1.73-0.83l-1.35,2.79l-1.53-0.74l4.2-8.69l3.43,1.66c2.02,0.98,2.75,2.74,1.89,4.51
			C71.69,167.55,69.63,167.82,67.72,166.89z M69.95,162.41l-1.78-0.86l-1.51,3.13l1.78,0.86c1.16,0.56,2.18,0.27,2.63-0.66
			C71.56,163.85,71.09,162.96,69.95,162.41z"/>
		<path class="st3" d="M79.54,164.57l-3.07,9.15l-1.61-0.54l3.07-9.15L79.54,164.57z"/>
		<path class="st3" d="M86.94,176.53c-2.92-0.53-4.55-3.11-4.06-5.8s2.96-4.55,5.88-4.02c2.92,0.53,4.55,3.11,4.06,5.8
			C92.32,175.2,89.85,177.06,86.94,176.53z M88.45,168.24c-1.89-0.34-3.48,0.92-3.81,2.78c-0.34,1.86,0.73,3.64,2.61,3.98
			c1.89,0.34,3.48-0.92,3.81-2.78C91.4,170.36,90.33,168.58,88.45,168.24z"/>
		<path class="st3" d="M111.15,167.5l1.66-0.16l0.9,9.61l-1.41,0.13l-5.94-6.34l0.64,6.84l-1.66,0.16l-0.9-9.61l1.57-0.15l5.77,6.17
			L111.15,167.5z"/>
		<path class="st3" d="M124.46,174.71c-2.85,0.82-5.46-0.77-6.21-3.4c-0.75-2.62,0.64-5.39,3.49-6.21c2.85-0.82,5.46,0.77,6.21,3.4
			C128.7,171.12,127.31,173.89,124.46,174.71z M122.14,166.6c-1.84,0.53-2.71,2.37-2.19,4.19s2.26,2.94,4.11,2.41
			c1.84-0.53,2.71-2.37,2.19-4.19C125.73,167.2,123.98,166.08,122.14,166.6z"/>
		<path class="st3" d="M144.9,165.5l-1.46,0.88l-4.18-6.92l-2.62,1.58l-0.81-1.35l6.71-4.05l0.81,1.35l-2.62,1.58L144.9,165.5z"/>
		<path class="st3" d="M155.68,157.78c-2.24,1.94-5.28,1.6-7.07-0.46c-1.79-2.06-1.69-5.16,0.55-7.1c2.24-1.94,5.28-1.6,7.07,0.46
			C158.01,152.74,157.92,155.83,155.68,157.78z M148.29,150.13l-0.38-2.67l1.59-0.48l-0.23,2.3L148.29,150.13z M150.16,151.41
			c-1.45,1.26-1.46,3.29-0.22,4.72c1.24,1.43,3.29,1.71,4.74,0.46s1.46-3.29,0.22-4.72C153.66,150.44,151.61,150.15,150.16,151.41z"
			/>
		<path class="st3" d="M167.36,145.1l-4.44-0.32l1.25,4.28l-1.22,1.52l-1.62-5.82l-5.81-0.34l1.25-1.56l4.2,0.3l-1.18-4.05
			l1.22-1.51l1.56,5.58l6.04,0.37L167.36,145.1z"/>
		<path class="st3" d="M164.17,132.51l8.25,5.02l-0.88,1.45l-8.25-5.02L164.17,132.51z"/>
		<path class="st3" d="M177.38,128.14c-1.13,2.57-3.98,3.61-6.53,2.49c-2.52-1.11-3.75-3.9-2.58-6.57c0.72-1.63,1.72-2.36,2.9-2.85
			l0.71,1.5c-0.97,0.42-1.74,0.98-2.19,1.99c-0.74,1.69,0.11,3.53,1.85,4.29s3.69,0.17,4.44-1.53c0.48-1.09,0.34-1.97-0.03-3.04
			l1.45-0.55C177.95,125.21,178.11,126.49,177.38,128.14z"/>
		<path class="st3" d="M181.78,114.97c-0.7,2.88-3.37,4.36-6.02,3.72s-4.37-3.21-3.68-6.09c0.7-2.88,3.36-4.36,6.02-3.72
			C180.76,109.52,182.48,112.09,181.78,114.97z M173.6,112.99c-0.45,1.86,0.72,3.52,2.56,3.96s3.67-0.52,4.12-2.38
			s-0.72-3.52-2.56-3.96C175.88,110.17,174.04,111.13,173.6,112.99z"/>
	</g>
	<g>
		<path class="st3" d="M29.38,79.84c-0.46,2.78-2.97,4.49-5.72,4.03c-2.72-0.45-4.6-2.85-4.13-5.73c0.29-1.76,1.08-2.72,2.1-3.48
			l1.06,1.28c-0.83,0.64-1.45,1.38-1.63,2.47c-0.3,1.82,0.98,3.39,2.85,3.7c1.88,0.31,3.62-0.76,3.92-2.58
			c0.19-1.17-0.16-2-0.79-2.94l1.27-0.89C29.2,76.86,29.67,78.06,29.38,79.84z"/>
		<path class="st3" d="M32.51,67.95c-0.99,2.79-3.8,3.99-6.38,3.07c-2.57-0.92-4.01-3.65-3.02-6.44c0.99-2.79,3.8-3.99,6.38-3.07
			C32.06,62.42,33.5,65.16,32.51,67.95z M24.57,65.12c-0.64,1.81,0.35,3.58,2.13,4.21c1.78,0.63,3.7-0.13,4.35-1.93
			c0.64-1.81-0.35-3.58-2.13-4.21C27.14,62.56,25.21,63.32,24.57,65.12z"/>
		<path class="st3" d="M36.31,53.87l-0.03,0.05l-5.43,0.3l5.94,3.51l-0.85,1.44l-8.31-4.91l0.92-1.56l5.42-0.21l-2.43-4.85
			l0.92-1.56L40.76,51l-0.86,1.46l-5.96-3.52L36.31,53.87z"/>
		<path class="st3" d="M37.39,39.67l7.52,6.06l-1.06,1.32L36.33,41L37.39,39.67z"/>
		<path class="st3" d="M46.98,35.3c1.81-1.06,3.08-1.28,4.2-0.12c1.27,1.31,1,3.06-0.46,4.48c-1.06,1.03-2.41,1.63-3.96,1.69
			l-0.11-1.58c1.22-0.07,2.2-0.39,3.06-1.22c0.75-0.73,0.89-1.54,0.37-2.07c-0.49-0.5-1.03-0.5-2.6,0.45
			c-1.82,1.07-3.07,1.44-4.32,0.16c-1.17-1.21-0.97-2.98,0.41-4.31c1.01-0.98,2.11-1.45,3.36-1.57l0.24,1.55
			c-1.07,0.14-1.94,0.5-2.57,1.11c-0.71,0.69-0.77,1.46-0.32,1.92C44.8,36.34,45.35,36.27,46.98,35.3z"/>
		<path class="st3" d="M52.18,25.61l5.83,7.69l-1.35,1.02l-5.83-7.69L52.18,25.61z"/>
		<path class="st3" d="M66.16,28.25c-2.59,1.44-5.49,0.48-6.82-1.91c-1.33-2.39-0.6-5.39,1.99-6.83c2.59-1.44,5.49-0.48,6.82,1.91
			C69.48,23.81,68.75,26.81,66.16,28.25z M62.06,20.89c-1.68,0.93-2.1,2.92-1.18,4.57c0.92,1.65,2.87,2.35,4.54,1.42
			c1.68-0.93,2.1-2.92,1.18-4.57C65.69,20.66,63.74,19.96,62.06,20.89z M60.49,19.25l0.18-2.69l1.65-0.15l-0.7,2.2L60.49,19.25z"/>
		<path class="st3" d="M77.91,12.67l1.58-0.53l3.04,9.16l-1.35,0.45l-7.22-4.84l2.17,6.52l-1.58,0.53l-3.04-9.16L73,14.3l7.01,4.71
			L77.91,12.67z"/>
		<path class="st3" d="M97.46,19.01l-3.6,0.18l-0.49-9.65l3.6-0.18c3.03-0.15,5.23,1.82,5.37,4.55
			C102.48,16.64,100.49,18.86,97.46,19.01z M97.05,10.91l-1.9,0.1l0.33,6.56l1.9-0.1c2.03-0.1,3.28-1.53,3.18-3.44
			C100.47,12.13,99.07,10.81,97.05,10.91z"/>
		<path class="st3" d="M115.04,11.73l-5.43-0.63l-0.29,2.49l4.81,0.56l-0.17,1.51l-4.81-0.56l-0.3,2.58l5.5,0.64l-0.17,1.51
			l-7.18-0.83l1.11-9.59l7.11,0.82L115.04,11.73z"/>
		<path class="st3" d="M134.51,17.48l-5.13-1.95l-0.94,2.46l4.55,1.73l-0.55,1.44l-4.55-1.73l-1.4,3.67l-1.59-0.6l3.43-9.03
			l6.72,2.55L134.51,17.48z"/>
		<path class="st3" d="M139.27,29.31c-2.55-1.51-3.18-4.5-1.79-6.85c1.39-2.35,4.36-3.23,6.91-1.72c2.55,1.51,3.18,4.5,1.79,6.85
			C144.78,29.93,141.82,30.82,139.27,29.31z M143.57,22.06c-1.65-0.98-3.58-0.34-4.54,1.28c-0.96,1.62-0.58,3.66,1.06,4.64
			c1.65,0.98,3.58,0.34,4.54-1.28C145.59,25.07,145.21,23.04,143.57,22.06z"/>
		<path class="st3" d="M152.32,35.73l-0.04-0.04l0.75-5.39l-4.58,5.15l-1.25-1.11l6.42-7.21l1.35,1.2l-0.84,5.36l5.23-1.46l1.35,1.2
			l-6.42,7.21l-1.27-1.13l4.6-5.17L152.32,35.73z"/>
		<path class="st3" d="M168.36,44.83l-3.38-4.28L163,42.1l3,3.8l-1.19,0.94l-3-3.8l-2.03,1.61l3.43,4.34l-1.19,0.94l-4.48-5.67
			l7.57-5.98l4.44,5.61L168.36,44.83z"/>
		<path class="st3" d="M176.18,54.85l0.8,1.46l-8.47,4.64l-0.68-1.25l3.47-7.97l-6.03,3.3l-0.8-1.46l8.47-4.64l0.75,1.38l-3.37,7.74
			L176.18,54.85z"/>
		<path class="st3" d="M171.73,69.27l-0.56-1.62l7.64-2.65l-1-2.89l1.48-0.51l2.57,7.4l-1.49,0.51l-1-2.89L171.73,69.27z"/>
		<path class="st3" d="M174.29,80.23c-0.5-2.92,1.38-5.34,4.07-5.79c2.69-0.46,5.29,1.23,5.78,4.15c0.5,2.92-1.38,5.34-4.07,5.79
			C177.38,84.84,174.79,83.15,174.29,80.23z M182.6,78.82c-0.32-1.89-2.05-2.95-3.92-2.64c-1.86,0.32-3.17,1.92-2.85,3.81
			c0.32,1.89,2.05,2.95,3.92,2.64C181.61,82.32,182.92,80.71,182.6,78.82z"/>
	</g>
	<g>
		<path class="st3" d="M77.35,119.05h-1.9v3.08h-1.68v-9.58h3.78c2.23,0,3.64,1.26,3.64,3.22
			C81.18,117.93,79.45,119.05,77.35,119.05z M77.4,114.08h-1.96v3.45h1.96c1.27,0,2.07-0.7,2.07-1.72
			C79.47,114.67,78.66,114.08,77.4,114.08z"/>
		<path class="st3" d="M90.96,117.98c0,2.86-1.62,4.3-4.12,4.3c-2.49,0-4.08-1.44-4.08-4.22v-5.52h1.68V118
			c0,1.78,0.92,2.74,2.42,2.74c1.49,0,2.41-0.9,2.41-2.67v-5.52h1.68V117.98z"/>
		<path class="st3" d="M100.38,114.06h-5.42v2.49h4.8v1.51h-4.8v2.57h5.49v1.5h-7.17v-9.58h7.1V114.06z"/>
		<path class="st3" d="M108.59,122.13l-2.35-3.34h-2.11v3.34h-1.68v-9.58h4.27c2.2,0,3.56,1.16,3.56,3.04
			c0,1.59-0.94,2.54-2.29,2.92l2.59,3.63H108.59z M106.58,114.08h-2.45v3.22h2.46c1.21,0,1.97-0.63,1.97-1.62
			C108.57,114.63,107.83,114.08,106.58,114.08z"/>
		<path class="st3" d="M116.36,122.13h-1.7v-8.02h-3.04v-1.56h7.77v1.56h-3.04V122.13z"/>
		<path class="st3" d="M125.23,122.3c-2.94,0-5-2.23-5-4.94c0-2.71,2.08-4.97,5.02-4.97s5,2.23,5,4.94
			C130.26,120.04,128.18,122.3,125.23,122.3z M125.23,113.93c-1.9,0-3.23,1.52-3.23,3.39s1.35,3.42,3.26,3.42
			c1.9,0,3.23-1.52,3.23-3.39S127.14,113.93,125.23,113.93z"/>
		<path class="st3" d="M67.07,135.49h-1.9v3.08h-1.68v-9.58h3.78c2.23,0,3.64,1.26,3.64,3.22
			C70.91,134.36,69.18,135.49,67.07,135.49z M67.13,130.52h-1.96v3.45h1.96c1.27,0,2.07-0.7,2.07-1.72
			C69.2,131.11,68.39,130.52,67.13,130.52z"/>
		<path class="st3" d="M74.42,128.98v9.58h-1.68v-9.58H74.42z"/>
		<path class="st3" d="M83.12,138.56l-2.35-3.34h-2.11v3.34h-1.68v-9.58h4.27c2.2,0,3.56,1.16,3.56,3.04c0,1.59-0.94,2.55-2.29,2.92
			l2.59,3.63H83.12z M81.11,130.52h-2.45v3.22h2.46c1.2,0,1.97-0.63,1.97-1.62C83.1,131.06,82.36,130.52,81.11,130.52z"/>
		<path class="st3" d="M96.05,138.56h-1.78l-0.97-2.31h-4.53l-0.99,2.31h-1.72l4.22-9.65h1.56L96.05,138.56z M91.03,130.93
			l-1.64,3.83h3.3L91.03,130.93z M90.37,128.19l1.45-2.24l1.51,0.67l-1.67,1.57H90.37z"/>
		<path class="st3" d="M102.41,136.21h-0.06l-3-4.49v6.84H97.7v-9.58h1.79l2.92,4.53l2.92-4.53h1.79v9.58h-1.68v-6.87L102.41,136.21
			z"/>
		<path class="st3" d="M111.36,128.98v9.58h-1.68v-9.58H111.36z"/>
		<path class="st3" d="M117.5,138.56h-3.57v-9.58h3.57c3.01,0,5.09,2.07,5.09,4.78S120.51,138.56,117.5,138.56z M117.5,130.52h-1.89
			v6.51h1.89c2.01,0,3.33-1.36,3.33-3.24S119.51,130.52,117.5,130.52z"/>
		<path class="st3" d="M131.74,130.49h-5.42v2.49h4.8v1.51h-4.8v2.57h5.49v1.5h-7.17v-9.58h7.1V130.49z"/>
		<path class="st3" d="M137.5,133.01c2.03,0.49,3.08,1.22,3.08,2.82c0,1.81-1.41,2.87-3.42,2.87c-1.46,0-2.85-0.51-4-1.53l1.01-1.2
			c0.92,0.79,1.83,1.25,3.03,1.25c1.04,0,1.7-0.48,1.7-1.22c0-0.7-0.38-1.07-2.16-1.48c-2.04-0.49-3.19-1.1-3.19-2.88
			c0-1.67,1.37-2.79,3.27-2.79c1.4,0,2.5,0.42,3.48,1.2l-0.9,1.27c-0.86-0.64-1.72-0.99-2.6-0.99c-0.99,0-1.56,0.51-1.56,1.15
			C135.23,132.24,135.67,132.57,137.5,133.01z"/>
	</g>
</g>
</svg>
